<?xml version="1.0" encoding="UTF-8" standalone="no"?>
<!DOCTYPE svg PUBLIC "-//W3C//DTD SVG 1.1//EN" "http://www.w3.org/Graphics/SVG/1.1/DTD/svg11.dtd">
<svg width="100%" height="100%" viewBox="0 0 1185 1200" version="1.1" xmlns="http://www.w3.org/2000/svg" xmlns:xlink="http://www.w3.org/1999/xlink" xml:space="preserve" xmlns:serif="http://www.serif.com/" style="fill-rule:evenodd;clip-rule:evenodd;stroke-linejoin:round;stroke-miterlimit:2;">
    <g transform="matrix(1.25464,0,0,1.23012,-229.904,-140.948)">
        <path d="M257.601,652.115C257.601,652.115 237.435,736.562 259.193,817.778C288.32,926.504 365.765,1048.77 560.934,1069.31C560.934,1069.31 574.624,1070.15 596.552,1068.42C680.386,1061.8 884.636,1017.5 904.675,744.298C904.675,744.298 902.504,666.174 862.106,586.46C821.286,505.914 715.428,409.199 579.072,410.381C579.072,410.381 461.04,488.005 410.342,603.151C410.342,603.151 524.209,459.105 695.21,557.924C695.21,557.924 799.44,619.979 791.871,748.655C781.56,923.952 613.137,950.59 613.137,950.59C613.137,950.59 441.338,975.998 368.655,816.395C331.679,735.201 344.364,660.818 365.844,600.922C388.43,537.939 418.752,498.454 443.854,468.952C443.854,468.952 577.32,306.169 916.47,209.444L759.064,293.345L623.174,379.961C623.174,379.961 710.823,436.675 831.125,390.273C831.125,390.273 907.513,357.808 967.754,259.229C1008.76,192.119 1062.32,153.852 1062.32,153.852C1062.32,153.852 726.125,46.109 538.963,218.155C538.963,218.155 467.448,291.862 473.615,361.782C473.615,361.782 308.789,444.892 257.601,652.115Z" style="fill:rgb(69,162,74);"/>
    </g>
</svg>
